<?xml version="1.0" standalone="no"?>
<!DOCTYPE svg PUBLIC "-//W3C//DTD SVG 20010904//EN"
 "http://www.w3.org/TR/2001/REC-SVG-20010904/DTD/svg10.dtd">
<svg version="1.0" xmlns="http://www.w3.org/2000/svg"
 width="512.000000pt" height="512.000000pt" viewBox="0 0 512.000000 512.000000"
 preserveAspectRatio="xMidYMid meet">
<metadata>
Created by potrace 1.16, written by Peter Selinger 2001-2019
</metadata>
<g transform="translate(0.000000,512.000000) scale(0.100000,-0.100000)"
fill="#000000" stroke="none">
<path d="M1280 3765 l0 -145 600 0 600 0 0 145 0 145 -600 0 -600 0 0 -145z"/>
<path d="M1280 2560 l0 -150 1205 0 1205 0 0 150 0 150 -1205 0 -1205 0 0
-150z"/>
<path d="M1280 1355 l0 -145 680 0 680 0 0 58 c1 31 7 93 15 137 8 44 15 83
15 88 0 4 -313 7 -695 7 l-695 0 0 -145z"/>
</g>
</svg>
