<?xml version="1.0" standalone="no"?>
<!DOCTYPE svg PUBLIC "-//W3C//DTD SVG 20010904//EN"
 "http://www.w3.org/TR/2001/REC-SVG-20010904/DTD/svg10.dtd">
<svg version="1.0" xmlns="http://www.w3.org/2000/svg"
 width="612.000000pt" height="612.000000pt" viewBox="0 0 612.000000 612.000000"
 preserveAspectRatio="xMidYMid meet">
<metadata>
Created by potrace 1.16, written by Peter Selinger 2001-2019
</metadata>
<g transform="translate(0.000000,612.000000) scale(0.100000,-0.100000)"
fill="#000000" stroke="none">
<path d="M2205 4827 c-95 -32 -148 -79 -183 -164 -40 -94 -31 -144 59 -356 57
-133 59 -141 58 -219 -2 -92 12 -119 74 -153 44 -24 53 -48 69 -183 12 -98 8
-131 -32 -302 -11 -47 -20 -104 -20 -127 0 -36 3 -42 23 -45 22 -3 22 -5 22
-153 0 -138 -2 -156 -26 -220 -27 -72 -67 -231 -92 -367 -16 -86 -20 -80 54
-93 35 -6 37 -5 47 27 26 82 105 346 112 373 94 368 111 425 128 425 10 0 12
-7 8 -23 -3 -13 -10 -63 -16 -112 -16 -146 -36 -240 -83 -410 -25 -88 -48
-176 -51 -196 -6 -36 -6 -37 35 -47 34 -8 40 -8 35 4 -3 8 -1 14 5 14 6 0 8 4
5 9 -4 5 -2 11 2 13 5 1 27 50 50 108 22 58 56 147 76 197 26 68 44 140 64
265 28 172 28 173 55 176 23 3 27 8 27 35 -1 85 -22 222 -50 312 -32 108 -38
189 -16 214 18 20 32 91 18 91 -5 0 -34 -11 -64 -25 -29 -14 -63 -25 -76 -25
-40 0 -142 33 -142 46 0 20 34 74 46 74 7 0 31 -9 54 -19 l43 -19 91 32 c61
21 92 37 94 49 2 12 -20 32 -75 67 -43 27 -85 50 -93 50 -8 0 -1 9 17 21 30
19 31 21 18 52 -7 18 -10 49 -7 72 3 22 6 99 6 170 1 126 0 132 -30 195 -37
76 -83 126 -141 152 -55 24 -148 31 -198 15z m147 -192 c24 -13 77 -31 118
-40 41 -9 77 -21 81 -27 14 -23 20 -124 10 -175 -20 -100 -63 -160 -123 -169
-21 -4 -38 -11 -38 -16 0 -5 18 -27 40 -49 24 -24 40 -49 40 -64 0 -25 -24
-55 -43 -55 -24 1 -93 39 -124 68 -29 27 -32 34 -23 57 21 55 14 73 -39 96
-75 32 -89 52 -97 140 l-6 76 35 21 c38 22 86 81 107 132 7 16 14 30 15 30 1
0 22 -11 47 -25z"/>
<path d="M3572 4803 c-51 -15 -88 -30 -81 -33 20 -13 -6 -19 -44 -10 -35 7
-36 7 -26 -13 10 -17 9 -19 -5 -14 -26 10 -18 -13 17 -48 50 -50 99 -61 210
-47 163 21 163 21 192 -18 29 -39 30 -53 12 -106 -8 -22 -17 -51 -21 -66 -11
-47 19 -34 45 19 28 56 51 73 77 57 9 -6 18 -21 20 -33 l3 -21 26 20 c35 27
38 26 38 -17 0 -21 4 -49 9 -63 7 -21 6 -23 -5 -14 -17 14 -59 24 -59 15 0 -4
15 -13 33 -21 17 -7 36 -16 41 -18 5 -3 6 0 2 7 -4 6 -3 11 2 11 6 0 8 9 5 20
-4 16 12 9 72 -35 83 -60 94 -60 95 0 l1 30 21 -39 c14 -28 19 -51 15 -77 -5
-35 -3 -38 13 -29 29 15 48 12 60 -10 9 -17 6 -25 -15 -46 -16 -16 -34 -24
-49 -22 -15 2 -34 -6 -50 -21 -20 -19 -39 -25 -97 -29 l-72 -5 48 -25 c27 -13
74 -27 105 -29 56 -5 58 -5 82 28 14 19 47 77 73 129 69 140 64 211 -25 298
-77 75 -199 102 -280 63 l-40 -19 0 30 c0 42 -26 93 -64 124 -17 15 -34 35
-38 45 -23 60 -192 75 -346 32z"/>
<path d="M2870 4755 c-69 -22 -115 -66 -156 -151 -38 -79 -39 -99 -7 -174 14
-34 15 -34 24 -12 12 31 52 29 85 -5 15 -16 24 -21 21 -12 -13 40 -18 106 -8
132 13 34 41 36 41 2 0 -14 3 -25 8 -25 13 1 50 35 62 59 11 21 14 22 22 8 5
-10 6 -22 3 -27 -15 -24 17 -7 37 20 14 19 25 27 32 20 6 -6 5 -15 -4 -25 -16
-19 -11 -19 36 2 35 15 36 17 16 21 -16 2 -22 8 -18 19 3 8 6 21 6 29 0 11 5
11 25 2 14 -6 28 -9 31 -5 10 10 -26 74 -51 87 -13 7 -21 18 -19 25 11 26
-111 33 -186 10z"/>
<path d="M3490 4201 c-19 -4 -81 -31 -138 -60 l-103 -52 6 -37 c13 -82 14 -84
37 -76 21 6 21 6 6 -17 -8 -13 -25 -43 -37 -67 -18 -36 -25 -41 -37 -32 -11
10 -14 10 -14 0 0 -8 -3 -11 -6 -8 -3 4 -1 16 6 27 7 14 7 21 0 21 -5 0 -10
-4 -10 -9 0 -5 -23 -9 -51 -9 -28 -1 -58 -7 -67 -14 -13 -11 -14 -11 -8 0 6
11 2 11 -20 -1 -16 -8 -35 -12 -43 -9 -8 2 -11 0 -7 -6 3 -6 0 -13 -6 -16 -7
-3 -1 -4 15 -2 34 4 35 -7 2 -32 -21 -17 -22 -21 -9 -26 28 -11 -3 -35 -55
-42 l-46 -6 -43 -97 c-24 -53 -45 -100 -47 -106 -6 -13 83 -66 114 -68 20 -2
31 9 62 63 21 36 39 63 39 60 0 -3 -9 -33 -19 -67 -11 -35 -16 -65 -13 -67 4
-2 30 -7 57 -10 75 -11 81 -31 43 -143 -17 -48 -32 -90 -34 -92 -2 -2 -15 2
-28 9 -20 10 -24 18 -19 41 5 27 4 28 -34 26 -33 -1 -43 -6 -56 -29 -16 -28
-16 -29 16 -48 18 -11 50 -25 72 -31 22 -6 51 -15 65 -19 l25 -8 -26 -7 c-23
-6 -28 -14 -39 -73 -8 -40 -15 -184 -17 -360 l-5 -294 -36 -15 c-21 -9 -59
-22 -87 -30 -81 -23 -83 -24 -60 -33 11 -5 47 -9 80 -9 53 0 79 3 170 24 22 5
27 28 56 225 5 36 18 130 30 210 46 323 100 483 138 412 15 -28 47 -199 70
-372 11 -85 29 -223 40 -306 11 -83 17 -160 15 -172 -4 -15 2 -25 23 -38 15
-10 43 -31 61 -46 23 -20 44 -28 70 -28 48 0 84 10 80 22 -2 5 -34 35 -72 66
l-68 57 -5 120 c-6 149 11 446 38 659 21 171 30 206 53 206 11 0 13 10 8 43
-4 36 -3 40 9 30 22 -18 236 -46 304 -40 99 9 106 16 86 81 -6 17 -18 63 -29
101 l-19 70 -64 8 c-35 5 -77 8 -94 8 -24 0 -27 2 -15 10 11 8 8 9 -13 4 -16
-3 -26 -2 -23 3 3 5 -25 14 -61 20 -39 7 -74 19 -85 30 -18 17 -16 21 51 130
39 62 93 139 121 171 57 65 57 73 -1 119 l-29 23 -55 -20 c-74 -28 -185 -30
-185 -3 0 10 7 28 16 40 17 24 15 25 -46 13z"/>
<path d="M2407 2435 c-20 -12 -32 -13 -46 -5 -29 15 -33 13 -29 -17 3 -25 10
-29 68 -45 80 -21 140 -22 165 -4 25 18 14 39 -30 60 -52 25 -96 29 -128 11z"/>
<path d="M2230 2385 c-15 -18 -66 -20 -76 -3 -9 14 -24 -21 -17 -39 11 -29
186 -56 237 -37 40 15 4 57 -70 79 -60 18 -59 18 -74 0z"/>
</g>
</svg>
