<?xml version="1.0" standalone="no"?>
<!DOCTYPE svg PUBLIC "-//W3C//DTD SVG 20010904//EN"
 "http://www.w3.org/TR/2001/REC-SVG-20010904/DTD/svg10.dtd">
<svg version="1.0" xmlns="http://www.w3.org/2000/svg"
 width="512.000000pt" height="512.000000pt" viewBox="0 0 512.000000 512.000000"
 preserveAspectRatio="xMidYMid meet">
<metadata>
Created by potrace 1.16, written by Peter Selinger 2001-2019
</metadata>
<g transform="translate(0.000000,512.000000) scale(0.100000,-0.100000)"
fill="#000000" stroke="none">
<path d="M604 3957 c-20 -17 -27 -33 -27 -57 0 -24 7 -40 27 -57 l27 -23 690
0 690 0 24 25 c33 32 33 78 0 110 l-24 25 -690 0 -690 0 -27 -23z"/>
<path d="M1206 3083 c-642 -3 -616 -1 -630 -59 -8 -29 17 -81 41 -88 10 -2
328 -6 706 -8 l689 -3 24 28 c26 30 31 72 11 98 -24 32 -55 39 -154 37 -54 -2
-363 -4 -687 -5z"/>
<path d="M3568 2783 c-28 -4 -28 -5 -28 -82 0 -81 9 -101 45 -101 37 0 45 20
45 107 0 90 4 86 -62 76z"/>
<path d="M4125 2579 c-37 -63 -43 -97 -23 -117 17 -17 53 -15 70 6 21 24 68
108 68 121 0 6 -18 20 -40 31 l-39 20 -36 -61z"/>
<path d="M2958 2612 c-16 -9 -28 -21 -28 -26 0 -14 59 -112 75 -126 22 -18 65
2 65 30 0 26 -61 140 -75 140 -5 0 -22 -8 -37 -18z"/>
<path d="M3552 2408 c-9 -9 -12 -103 -12 -362 l0 -351 -38 -20 c-52 -28 -87
-99 -78 -158 17 -115 153 -177 250 -114 20 13 37 6 236 -109 118 -68 222 -124
230 -124 24 0 40 21 40 51 0 25 -18 38 -217 153 l-218 125 -1 45 c-1 55 -39
118 -83 137 l-31 14 0 350 c0 369 -1 375 -45 375 -12 0 -26 -5 -33 -12z"/>
<path d="M1200 2190 c-327 -3 -596 -6 -597 -8 -16 -16 -32 -67 -27 -86 14 -56
-23 -53 793 -57 l755 -4 24 60 c13 33 27 70 32 83 l10 22 -198 -2 c-108 -2
-465 -5 -792 -8z"/>
<path d="M4565 2163 c-82 -49 -92 -66 -54 -104 13 -13 27 -18 40 -14 33 11
129 69 129 79 0 12 -40 76 -48 76 -4 -1 -34 -17 -67 -37z"/>
<path d="M2505 2155 c-11 -19 -17 -36 -15 -38 24 -20 122 -67 139 -67 29 0 49
43 31 65 -14 17 -112 75 -127 75 -5 0 -18 -16 -28 -35z"/>
<path d="M4657 1572 c-21 -23 -22 -46 -1 -66 11 -12 36 -16 95 -16 l79 0 0 50
0 50 -78 0 c-64 0 -82 -4 -95 -18z"/>
<path d="M2340 1535 l0 -45 73 0 c76 0 107 15 107 51 0 30 -24 39 -102 39
l-78 0 0 -45z"/>
<path d="M604 1277 c-20 -17 -27 -33 -27 -57 0 -24 7 -40 27 -57 l27 -23 730
0 c505 0 729 3 729 11 0 5 -4 29 -9 52 -6 23 -12 54 -16 70 l-5 27 -715 0
-714 0 -27 -23z"/>
<path d="M2548 994 c-32 -19 -58 -38 -58 -42 0 -4 9 -22 20 -40 l21 -33 32 19
c17 11 47 28 65 38 40 23 49 49 26 75 -23 26 -39 23 -106 -17z"/>
<path d="M4499 1006 c-16 -34 -3 -51 72 -96 l64 -39 22 37 c13 20 21 41 20 47
-6 18 -112 74 -140 75 -19 0 -31 -7 -38 -24z"/>
<path d="M4108 619 c-10 -5 -18 -21 -18 -35 0 -24 53 -129 71 -139 11 -8 69
23 75 39 6 15 -49 113 -74 134 -19 14 -31 15 -54 1z"/>
<path d="M3563 470 c-21 -9 -23 -16 -23 -88 l0 -79 31 -7 c60 -12 59 -12 59
73 0 59 -4 84 -16 95 -17 18 -20 18 -51 6z"/>
</g>
</svg>
