<?xml version="1.0" standalone="no"?>
<!DOCTYPE svg PUBLIC "-//W3C//DTD SVG 20010904//EN"
 "http://www.w3.org/TR/2001/REC-SVG-20010904/DTD/svg10.dtd">
<svg version="1.0" xmlns="http://www.w3.org/2000/svg"
 width="512.000000pt" height="512.000000pt" viewBox="0 0 512.000000 512.000000"
 preserveAspectRatio="xMidYMid meet">
<metadata>
Created by potrace 1.16, written by Peter Selinger 2001-2019
</metadata>
<g transform="translate(0.000000,512.000000) scale(0.100000,-0.100000)"
fill="#000000" stroke="none">
<path d="M2426 3179 c-591 -68 -1055 -529 -1127 -1119 -13 -111 -6 -284 16
-389 53 -254 166 -462 350 -647 225 -226 491 -347 821 -374 631 -51 1216 409
1329 1045 23 128 21 334 -4 460 -53 269 -171 485 -370 678 -278 269 -633 391
-1015 346z m-143 -780 c12 -6 79 -68 149 -137 l128 -126 128 126 c70 70 140
132 155 137 99 38 207 -34 207 -136 0 -24 -5 -54 -11 -66 -6 -12 -68 -79 -137
-149 l-126 -128 126 -128 c70 -70 132 -140 137 -155 44 -115 -47 -227 -170
-209 -27 4 -60 31 -169 138 l-136 133 -119 -120 c-157 -158 -203 -180 -292
-140 -46 22 -71 53 -83 106 -16 69 3 100 141 240 l129 131 -121 119 c-66 66
-127 133 -136 149 -22 42 -20 122 4 155 47 63 136 90 196 60z"/>
</g>
</svg>
