<?xml version="1.0" standalone="no"?>
<!DOCTYPE svg PUBLIC "-//W3C//DTD SVG 20010904//EN"
 "http://www.w3.org/TR/2001/REC-SVG-20010904/DTD/svg10.dtd">
<svg version="1.0" xmlns="http://www.w3.org/2000/svg"
 width="1118.000000pt" height="1024.000000pt" viewBox="0 0 1118.000000 1024.000000"
 preserveAspectRatio="xMidYMid meet">
<metadata>
Created by potrace 1.16, written by Peter Selinger 2001-2019
</metadata>
<g transform="translate(0.000000,1024.000000) scale(0.100000,-0.100000)"
fill="#000000" stroke="none">
<path d="M5220 9938 c-139 -369 -152 -396 -190 -409 -41 -15 -39 -39 3 -39 92
0 187 13 187 26 0 8 -11 14 -24 14 -21 0 -56 22 -56 36 0 3 14 41 31 84 l30
80 109 0 c60 0 116 3 124 6 12 5 24 -12 52 -71 19 -43 34 -85 32 -94 -2 -9
-18 -20 -36 -26 -50 -14 -41 -35 16 -35 118 0 232 13 232 26 0 8 -9 14 -20 14
-46 0 -78 53 -219 355 -77 165 -146 301 -154 303 -9 2 -46 -85 -117 -270z
m208 -153 c-2 -1 -49 -5 -106 -7 -72 -4 -102 -2 -99 6 2 6 23 64 48 129 l44
118 58 -122 c31 -67 56 -123 55 -124z"/>
<path d="M4693 10129 c-11 -29 -14 -30 -50 -22 -173 37 -332 -36 -402 -186
-23 -49 -26 -68 -26 -161 0 -99 2 -110 33 -172 65 -132 168 -194 311 -186 148
9 239 75 291 213 8 21 7 25 -9 25 -11 0 -25 -15 -36 -41 -25 -54 -94 -114
-150 -128 -153 -38 -264 38 -311 214 -17 61 -18 184 -3 236 16 52 64 108 113
130 48 22 133 25 179 6 31 -14 85 -67 118 -117 9 -14 21 -21 25 -17 11 11 -47
237 -61 237 -6 0 -16 -14 -22 -31z"/>
<path d="M6360 10147 c0 -7 16 -19 35 -26 22 -8 37 -21 41 -36 5 -22 -78 -492
-96 -540 -12 -31 -38 -45 -73 -38 -20 4 -27 1 -27 -10 0 -19 245 -68 376 -75
132 -6 190 13 264 86 75 76 102 144 103 262 0 68 -4 96 -22 137 -30 68 -101
134 -173 161 -41 16 -394 92 -424 92 -2 0 -4 -6 -4 -13z m371 -123 c96 -53
134 -129 127 -258 -6 -102 -35 -171 -95 -227 -56 -51 -98 -69 -166 -69 -61 0
-147 26 -147 45 0 12 68 382 91 494 l11 54 63 -5 c43 -4 79 -15 116 -34z"/>
<path d="M3930 9970 c-14 -5 -78 -25 -143 -45 -124 -38 -151 -62 -65 -56 37 2
49 -1 56 -16 15 -27 162 -512 162 -532 0 -19 -24 -44 -52 -54 -10 -4 -18 -13
-18 -22 0 -8 1 -15 3 -15 1 0 65 20 141 43 146 45 182 68 102 65 -25 -1 -51 3
-57 9 -13 13 -155 466 -165 525 -6 35 -4 39 30 59 20 11 36 27 36 35 0 8 -1
14 -2 13 -2 0 -14 -4 -28 -9z"/>
<path d="M7258 9958 c-3 -7 9 -19 26 -28 56 -29 56 -29 -34 -291 -45 -134 -89
-256 -96 -271 -17 -32 -43 -42 -77 -29 -27 10 -48 -3 -31 -18 20 -17 496 -173
504 -165 44 46 107 141 99 149 -6 6 -14 6 -23 0 -7 -6 -32 -25 -56 -42 -30
-23 -54 -33 -79 -33 -50 0 -221 58 -229 78 -5 13 60 223 79 253 7 12 151 -37
184 -63 22 -17 26 -27 23 -61 -6 -76 19 -49 60 65 44 125 41 156 -9 95 -17
-20 -39 -37 -50 -37 -23 0 -170 48 -181 59 -7 6 57 218 71 233 10 12 225 -69
244 -93 10 -13 17 -38 17 -65 0 -30 4 -44 13 -44 16 0 54 137 41 150 -7 7
-477 170 -489 170 -2 0 -5 -5 -7 -12z"/>
<path d="M3102 9668 c-93 -40 -142 -65 -142 -75 0 -11 6 -13 20 -9 11 3 28 8
38 11 9 3 25 0 35 -7 24 -18 219 -474 221 -517 1 -28 -5 -39 -31 -56 -18 -13
-28 -26 -24 -33 5 -8 81 20 247 90 131 55 241 102 243 104 2 2 0 48 -4 103 -5
70 -11 101 -20 101 -8 0 -14 -21 -18 -57 -9 -89 -46 -126 -184 -183 -73 -31
-76 -31 -94 -13 -15 15 -195 427 -213 489 -7 22 35 74 60 74 17 0 24 13 16 27
-5 7 -54 -9 -150 -49z"/>
<path d="M8000 9687 c0 -8 11 -19 25 -25 52 -24 46 -47 -81 -304 -66 -132
-127 -247 -137 -255 -14 -14 -23 -14 -54 -5 -27 8 -40 9 -48 1 -7 -8 -7 -13 1
-16 6 -2 116 -55 245 -119 l234 -115 66 73 c37 40 64 77 60 81 -4 4 -34 -9
-67 -28 -72 -45 -100 -43 -214 11 -132 62 -133 36 11 322 l124 247 40 -1 c22
-1 49 -3 59 -5 10 -2 20 1 22 6 4 10 -255 145 -276 145 -6 0 -10 -6 -10 -13z"/>
<path d="M2590 9391 c-67 -22 -371 -198 -378 -218 -4 -15 34 -18 43 -3 11 18
51 11 72 -12 25 -29 268 -435 277 -466 6 -17 0 -29 -23 -53 -31 -30 -39 -49
-22 -49 23 0 357 209 396 248 68 66 82 143 43 222 -30 58 -72 82 -143 81 l-55
0 15 29 c35 67 10 153 -57 203 -30 23 -124 33 -168 18z m80 -90 c14 -9 33 -34
44 -55 16 -32 17 -44 7 -76 -13 -44 -60 -89 -130 -125 l-49 -24 -65 109 -66
110 46 31 c85 59 157 69 213 30z m175 -261 c34 -21 65 -73 65 -109 0 -33 -35
-94 -67 -117 -38 -28 -109 -64 -126 -64 -8 0 -44 50 -81 111 -76 127 -78 115
28 169 71 36 133 40 181 10z"/>
<path d="M9070 9084 c0 -3 11 -19 25 -36 14 -16 25 -36 25 -43 0 -22 -320
-439 -353 -459 -13 -8 -25 -7 -48 7 -67 38 -68 5 -1 -45 26 -19 78 -59 115
-89 49 -38 71 -49 76 -40 5 8 -3 23 -20 41 -16 16 -29 33 -29 39 0 11 148 211
157 211 3 0 29 -22 59 -49 64 -58 107 -75 179 -69 117 10 188 119 155 239 -15
52 -66 107 -197 209 -104 80 -143 103 -143 84z m188 -190 c19 -15 41 -42 48
-61 38 -91 -68 -219 -165 -198 -38 8 -96 68 -85 88 22 37 150 197 158 197 5 0
25 -12 44 -26z"/>
<path d="M1941 8984 c-62 -51 -89 -80 -83 -86 7 -7 18 -5 33 6 35 24 62 20 96
-16 55 -59 241 -295 258 -329 54 -104 -52 -264 -176 -264 -61 0 -94 26 -212
166 -186 220 -199 245 -152 289 25 23 24 46 -1 36 -19 -7 -224 -177 -224 -186
0 -17 14 -17 45 1 27 16 38 18 54 9 12 -6 84 -86 160 -178 161 -193 192 -216
286 -217 44 0 72 6 104 23 143 75 214 195 181 305 -16 55 -57 115 -184 270
-58 70 -107 136 -111 147 -7 21 5 49 29 69 15 13 13 31 -3 31 -4 0 -49 -34
-100 -76z"/>
<path d="M9645 8630 c-4 -6 2 -21 14 -34 42 -44 33 -58 -171 -263 -106 -107
-203 -196 -216 -200 -16 -4 -34 2 -54 17 -17 13 -34 18 -39 13 -5 -5 72 -89
181 -198 l190 -190 86 43 c101 50 104 71 7 51 -32 -7 -72 -9 -88 -5 -18 5 -64
41 -114 91 l-84 84 31 38 c17 21 60 67 96 103 l66 64 66 -64 c82 -81 88 -94
61 -143 -14 -24 -17 -41 -11 -47 6 -6 41 22 99 80 69 70 85 91 72 95 -9 4 -26
0 -39 -9 -40 -28 -63 -19 -140 53 l-73 70 90 90 90 91 83 -83 c102 -100 110
-116 82 -170 -16 -29 -18 -43 -10 -51 8 -8 24 4 60 44 27 30 50 60 50 65 0 9
-108 118 -306 309 -47 45 -74 64 -79 56z"/>
<path d="M1260 8354 c-38 -19 -280 -261 -280 -281 0 -20 21 -15 47 9 19 17 28
20 48 12 28 -10 386 -342 412 -380 15 -24 15 -27 -6 -54 -11 -16 -21 -34 -21
-40 0 -27 33 -1 124 96 73 78 96 108 87 117 -8 8 -17 5 -34 -11 -38 -36 -61
-28 -158 59 l-90 82 53 51 c30 28 62 69 73 91 38 81 16 181 -53 233 -45 34
-147 42 -202 16z m107 -105 c47 -29 73 -75 73 -126 0 -35 -7 -50 -36 -83 -20
-22 -40 -40 -45 -40 -8 0 -191 168 -197 181 -5 12 52 72 83 85 36 17 76 11
122 -17z"/>
<path d="M5320 8230 c-8 -5 -33 -9 -54 -8 -29 1 -44 -4 -57 -20 -9 -12 -22
-22 -27 -22 -11 0 -22 -24 -22 -48 0 -10 -9 -23 -21 -30 -26 -17 -20 -47 22
-113 44 -69 40 -83 -26 -98 -43 -10 -59 -10 -70 -1 -12 10 -10 18 11 50 26 39
25 60 -1 60 -11 0 -11 6 3 30 16 27 16 30 0 46 -13 13 -14 20 -5 35 9 15 9 23
-1 37 -7 9 -19 32 -27 50 -21 45 -61 45 -80 0 l-13 -33 -4 30 c-2 24 -8 31
-30 33 -22 3 -31 -4 -52 -36 -14 -23 -37 -44 -55 -50 -34 -12 -40 -32 -16 -52
8 -7 15 -19 15 -27 0 -24 -30 5 -47 45 -19 45 -50 40 -79 -12 -13 -22 -34 -45
-47 -53 -14 -7 -34 -28 -45 -47 -12 -20 -32 -38 -46 -42 -15 -3 -26 -10 -26
-14 0 -4 -13 -10 -29 -13 -22 -5 -32 -14 -41 -42 -7 -22 -23 -41 -41 -50 -34
-18 -36 -31 -9 -60 18 -19 19 -24 6 -34 -11 -10 -18 -6 -36 19 -32 46 -80 35
-80 -17 0 -13 -11 -35 -25 -49 -32 -32 -31 -43 3 -72 25 -22 26 -23 4 -17 -30
9 -48 -8 -56 -49 -4 -18 -15 -41 -26 -51 -27 -25 -25 -49 5 -63 16 -8 23 -17
19 -27 -5 -12 -10 -13 -20 -4 -7 6 -23 9 -36 7 -20 -3 -23 -10 -26 -48 -2 -25
-10 -53 -19 -62 -20 -22 -11 -46 21 -58 22 -8 25 -15 23 -47 -2 -36 0 -38 31
-41 22 -2 32 -8 32 -21 0 -9 6 -23 13 -30 18 -18 -43 6 -65 25 -9 9 -27 14
-40 12 -21 -3 -23 -8 -21 -48 2 -25 -2 -55 -9 -67 -13 -27 1 -50 35 -55 17 -2
23 -12 27 -38 5 -32 8 -35 40 -38 26 -2 38 -9 47 -27 13 -30 13 -30 -31 -9
-19 9 -41 14 -50 11 -19 -8 -20 -43 -2 -77 10 -17 11 -30 4 -43 -13 -25 5 -45
45 -49 26 -2 33 -8 35 -30 3 -27 2 -27 -28 -17 -23 8 -34 8 -45 -1 -23 -19
-18 -43 15 -75 17 -16 30 -39 29 -50 -3 -40 1 -44 47 -47 33 -2 50 -9 58 -22
8 -14 8 -20 -1 -23 -25 -9 -14 -50 21 -76 20 -16 36 -38 40 -58 6 -32 6 -32
56 -26 46 6 51 4 70 -24 24 -32 45 -37 70 -14 16 14 20 14 48 -2 28 -16 35
-16 79 -4 96 28 112 26 194 -21 71 -40 76 -45 63 -62 -12 -18 -14 -17 -44 8
-35 29 -48 31 -84 14 -23 -10 -29 -8 -50 15 -29 31 -35 32 -83 12 -19 -8 -47
-15 -62 -15 -29 0 -51 -16 -51 -38 0 -7 20 -22 44 -33 25 -11 55 -33 66 -50
l22 -30 -29 6 c-198 44 -335 107 -445 204 -25 23 -50 41 -55 41 -4 0 -17 -14
-29 -30 l-21 -30 -215 173 c-339 270 -648 538 -648 559 0 31 -19 58 -40 58
-15 0 -31 21 -61 83 l-42 84 -119 23 c-65 12 -121 20 -124 17 -4 -4 89 -213
100 -224 1 -2 40 -10 84 -19 68 -14 80 -19 70 -31 -9 -11 -5 -19 20 -41 l32
-27 -73 -317 c-39 -175 -76 -317 -81 -315 -19 6 -655 533 -656 543 0 15 -34
44 -51 44 -8 0 -27 30 -43 65 -16 36 -34 72 -40 80 -10 14 -246 68 -255 59 -3
-2 20 -55 50 -117 l54 -114 93 -17 c61 -12 92 -23 92 -31 0 -8 8 -20 19 -27
18 -13 19 -91 45 -2198 15 -1202 31 -2228 37 -2280 16 -164 44 -286 96 -425
153 -407 406 -706 741 -874 536 -269 1251 -192 2082 224 71 35 131 61 134 56
9 -14 -13 -76 -104 -296 -130 -314 -128 -306 -107 -350 33 -69 13 -137 -53
-180 -32 -21 -60 -69 -60 -104 0 -26 34 -41 91 -41 21 0 39 -2 39 -3 0 -13
-42 -122 -64 -164 -14 -29 -26 -55 -26 -58 0 -8 69 -6 140 5 98 16 200 49 248
81 l42 28 43 -28 c23 -16 64 -36 90 -45 89 -30 297 -58 297 -41 0 3 -12 29
-26 58 -22 42 -64 151 -64 164 0 1 18 3 39 3 57 0 91 15 91 41 0 35 -28 83
-60 104 -65 42 -86 114 -54 177 9 17 14 42 11 57 -3 14 -49 132 -103 261 -103
249 -127 317 -118 331 3 5 63 -21 134 -56 831 -417 1546 -494 2082 -224 350
176 616 501 757 924 46 140 66 231 80 370 5 55 22 1083 37 2285 26 2107 27
2185 45 2198 11 7 19 19 19 26 0 8 34 19 93 30 l92 18 54 114 c30 63 52 116
50 118 -9 10 -245 -45 -255 -59 -6 -8 -24 -44 -40 -80 -18 -40 -35 -65 -45
-65 -17 0 -49 -30 -50 -46 0 -9 -637 -535 -655 -541 -5 -1 -42 140 -81 315
l-73 317 32 27 c25 22 29 30 19 41 -9 12 -5 16 26 22 21 3 59 11 84 16 l47 10
51 111 c29 60 50 112 47 115 -3 3 -59 -5 -124 -17 l-119 -23 -42 -84 c-30 -62
-46 -83 -61 -83 -21 0 -40 -27 -40 -58 0 -21 -309 -289 -647 -559 l-215 -171
-26 29 -27 30 -70 -56 c-112 -89 -248 -149 -428 -190 l-29 -6 22 30 c11 17 41
40 66 51 37 16 45 24 42 42 -2 19 -11 24 -49 29 -26 4 -56 12 -67 18 -32 17
-51 13 -76 -14 -20 -22 -27 -24 -50 -15 -41 15 -58 12 -89 -14 -27 -23 -30
-23 -45 -8 -16 16 -15 18 18 35 19 11 54 30 77 43 49 28 73 30 154 7 58 -16
63 -16 92 0 27 16 31 16 47 2 25 -23 46 -18 70 14 19 28 24 30 70 24 50 -6 50
-6 56 26 4 20 20 42 40 58 34 26 44 59 24 79 -22 22 1 43 48 46 44 3 47 5 50
34 2 19 15 43 33 60 32 31 37 55 13 75 -12 10 -22 10 -45 2 -29 -11 -30 -11
-27 15 2 22 9 28 35 30 40 4 58 24 44 50 -7 13 -6 26 5 46 31 62 7 91 -52 62
-44 -21 -44 -21 -31 9 9 18 21 25 47 27 31 3 35 6 38 36 3 26 10 35 38 47 33
14 44 37 24 50 -6 4 -9 30 -8 58 3 48 1 52 -20 55 -13 2 -31 -3 -40 -11 -9 -8
-27 -18 -38 -21 -19 -6 -21 -3 -16 19 3 17 11 25 26 25 37 0 49 15 41 49 -6
27 -3 32 19 41 34 12 43 36 23 58 -9 9 -17 37 -19 62 -3 38 -6 45 -26 48 -13
2 -29 -1 -36 -7 -10 -9 -15 -8 -19 3 -4 9 4 21 19 30 29 20 30 37 4 61 -11 10
-22 33 -26 51 -7 41 -26 58 -54 49 -29 -9 -25 10 5 23 31 14 32 38 4 61 -12
10 -24 34 -28 57 -5 33 -10 39 -33 42 -19 2 -31 -4 -48 -28 -18 -25 -25 -29
-36 -19 -13 10 -12 15 6 34 27 29 25 42 -9 60 -18 9 -34 28 -41 50 -9 28 -19
37 -41 42 -16 3 -29 9 -29 13 0 4 -11 11 -25 14 -14 4 -36 23 -50 45 -13 22
-34 42 -46 46 -11 4 -28 23 -36 43 -26 62 -65 71 -86 20 -17 -40 -47 -69 -47
-45 0 8 7 20 15 27 24 20 17 40 -19 55 -19 8 -43 30 -55 50 -17 30 -26 36 -49
33 -22 -2 -28 -9 -30 -33 l-4 -30 -13 33 c-18 42 -57 45 -79 5 -40 -74 -40
-74 -29 -92 9 -14 8 -22 -5 -35 -16 -16 -16 -19 0 -46 14 -24 14 -30 3 -30
-26 0 -27 -22 -1 -58 22 -32 24 -38 12 -51 -13 -12 -22 -12 -68 1 -65 18 -70
33 -30 96 43 67 49 97 23 114 -12 7 -21 20 -21 30 0 23 -11 48 -21 48 -4 0
-20 12 -34 26 -20 20 -32 24 -54 19 -17 -4 -38 -1 -49 6 -26 16 -52 5 -52 -22
0 -31 39 -97 61 -102 11 -3 19 -14 19 -26 0 -13 10 -26 25 -33 23 -10 24 -13
9 -21 -13 -7 -19 -7 -22 2 -2 7 -15 16 -28 21 -13 6 -28 20 -33 33 -5 14 -19
27 -30 30 -11 3 -25 16 -30 30 -10 25 -10 25 -121 39 -19 2 -26 -2 -28 -18 -2
-11 4 -27 13 -34 21 -17 19 -33 -2 -22 -21 10 -94 9 -111 -2 -17 -10 -15 9 3
24 8 7 15 22 15 33 0 18 -4 19 -46 13 -26 -3 -58 -6 -71 -6 -16 0 -27 -8 -33
-25 -5 -14 -21 -30 -35 -35 -14 -5 -25 -16 -25 -25 0 -8 -12 -22 -27 -32 -16
-10 -31 -22 -34 -27 -4 -5 -15 -6 -25 -2 -17 7 -16 9 9 22 16 9 27 23 27 35 0
12 8 23 19 26 24 6 63 77 59 105 -3 25 -25 33 -48 18z m328 -509 c20 -16 53
-32 74 -35 20 -4 39 -13 42 -21 7 -20 39 -19 76 3 37 23 86 18 93 -9 4 -13 14
-19 34 -19 35 0 105 -24 97 -33 -11 -11 15 -35 44 -42 15 -3 36 -13 47 -21 19
-14 19 -16 3 -25 -30 -17 -22 -47 15 -57 43 -12 108 -52 85 -52 -10 0 -18 -2
-18 -4 0 -2 -3 -11 -6 -20 -4 -10 5 -20 28 -32 18 -9 39 -25 45 -34 18 -26 59
-33 92 -15 26 13 31 13 52 -4 13 -10 31 -21 39 -24 26 -10 -33 -8 -68 2 -38
11 -82 -1 -82 -22 0 -8 8 -25 19 -38 32 -42 34 -64 6 -77 -28 -13 -33 -43 -10
-62 8 -7 15 -23 15 -36 0 -35 28 -57 65 -50 28 6 33 3 46 -26 12 -29 20 -33
55 -36 37 -3 41 -5 37 -27 -5 -26 2 -30 79 -40 39 -6 48 -12 58 -36 11 -26 8
-37 -23 -103 -34 -72 -127 -219 -146 -230 -21 -13 -23 18 -3 32 28 18 28 30 0
59 -19 20 -20 27 -10 43 20 33 14 57 -18 70 -17 7 -37 25 -45 41 -31 60 -95
71 -95 16 0 -12 -7 -33 -16 -45 -19 -28 -10 -60 21 -72 22 -8 23 -12 12 -39
-12 -32 -27 -32 -27 0 0 14 -7 19 -28 19 -22 0 -32 -7 -45 -34 -9 -19 -25 -37
-36 -41 -22 -7 -29 -39 -11 -50 6 -3 9 -14 9 -23 -1 -15 -2 -15 -6 1 -7 26
-50 21 -69 -9 -12 -17 -20 -22 -27 -15 -17 17 -37 13 -72 -13 -17 -13 -45 -26
-61 -28 -25 -3 -29 -7 -27 -33 2 -29 -10 -45 -35 -45 -10 0 -13 13 -10 48 3
43 1 47 -21 50 -13 2 -36 -6 -52 -17 -15 -12 -39 -21 -52 -21 -31 0 -48 -20
-41 -47 4 -15 -1 -25 -18 -34 -33 -17 -39 -31 -22 -50 13 -15 13 -17 -1 -22
-8 -4 -15 -13 -15 -22 0 -20 -3 -20 -71 18 l-59 32 -59 -32 c-68 -37 -71 -38
-71 -19 0 8 -7 17 -16 20 -15 6 -15 8 0 25 16 17 16 20 1 35 -9 9 -23 16 -31
16 -11 0 -14 9 -12 32 3 28 0 32 -31 40 -18 5 -46 18 -61 29 -15 12 -38 19
-51 17 -22 -3 -24 -7 -21 -50 3 -35 0 -48 -10 -48 -24 0 -35 15 -34 45 1 26
-3 30 -28 33 -16 2 -46 15 -67 29 -30 20 -41 23 -58 14 -17 -9 -22 -8 -31 9
-14 26 -59 38 -71 19 -6 -9 -9 -10 -9 -2 0 6 5 15 10 18 17 11 11 43 -9 50
-11 3 -29 21 -40 40 -24 40 -71 51 -71 16 0 -32 -15 -32 -27 0 -11 28 -10 31
13 39 31 12 41 37 24 64 -7 11 -16 35 -20 51 -5 25 -11 30 -35 30 -23 0 -35
-9 -57 -41 -16 -23 -39 -45 -53 -48 -28 -7 -33 -34 -13 -66 10 -16 9 -23 -10
-43 -28 -29 -28 -41 1 -60 17 -12 19 -18 10 -27 -16 -17 -89 84 -150 207 -45
89 -46 96 -32 121 10 18 26 29 54 34 88 17 87 17 81 43 -6 23 -4 25 31 25 47
0 58 8 66 42 7 24 10 26 44 21 40 -7 63 12 63 53 0 12 7 27 15 34 23 19 18 49
-10 62 -29 13 -26 38 7 75 11 11 18 29 16 40 -3 16 -13 18 -78 16 -53 -1 -68
1 -52 7 12 5 22 15 22 21 0 11 17 10 82 -6 21 -6 33 -1 59 24 17 17 37 31 44
31 19 0 36 26 29 44 -3 9 -14 16 -23 16 -22 0 33 33 82 49 41 14 50 43 20 60
-17 9 -17 11 2 25 11 8 27 16 35 16 23 0 62 30 57 43 -4 14 56 37 96 37 20 0
30 6 34 19 7 27 56 32 93 9 39 -23 56 -23 87 2 14 11 35 20 47 20 12 0 37 13
56 30 44 37 72 37 118 1z m-1036 -462 c-6 -37 -21 -49 -64 -49 -42 0 -56 -17
-40 -46 8 -14 4 -21 -21 -33 -19 -10 -35 -29 -41 -48 -6 -18 -17 -38 -25 -45
-11 -11 -12 2 -9 79 5 120 16 133 105 133 57 0 66 3 70 20 8 29 29 19 25 -11z
m1981 11 c4 -17 14 -20 69 -20 34 0 69 -4 76 -8 19 -13 32 -70 32 -146 0 -58
-2 -67 -14 -57 -8 7 -17 24 -21 39 -9 35 -33 62 -56 62 -16 0 -17 4 -9 26 14
35 6 44 -40 44 -42 0 -47 4 -60 50 -6 22 -5 30 5 30 7 0 15 -9 18 -20z m-3581
-75 c40 -8 83 -17 96 -20 18 -4 32 -25 58 -81 19 -41 34 -77 34 -80 0 -14 -30
6 -140 91 -67 52 -124 95 -126 95 -13 0 8 -18 121 -106 123 -95 147 -122 103
-111 -13 3 -52 11 -88 17 l-65 11 -42 91 c-37 78 -45 108 -28 108 2 0 37 -7
77 -15z m5242 6 c3 -5 -13 -49 -37 -99 l-42 -90 -80 -16 c-44 -9 -83 -16 -87
-16 -23 0 5 27 117 114 113 88 134 106 121 106 -2 0 -59 -43 -126 -95 -110
-85 -140 -105 -140 -91 0 3 15 39 34 80 26 56 41 77 58 81 136 32 175 38 182
26z m-6080 -202 l63 -12 39 -78 c21 -43 35 -81 31 -85 -6 -6 -257 183 -257
194 0 2 14 2 30 -2 17 -3 59 -11 94 -17z m6956 17 c0 -9 -252 -197 -257 -192
-4 4 10 42 31 85 l39 78 81 15 c94 18 106 19 106 14z m-6932 -131 c50 -38 91
-76 92 -84 0 -7 -6 -11 -12 -8 -7 2 -46 10 -86 17 l-73 13 -29 56 c-15 31 -35
73 -44 94 l-16 38 38 -28 c21 -15 79 -59 130 -98z m6935 88 c-8 -21 -28 -63
-43 -94 l-29 -56 -73 -13 c-40 -7 -79 -15 -85 -17 -7 -3 -13 1 -12 8 0 10 243
208 256 209 1 0 -5 -17 -14 -37z m-5907 -53 c17 0 151 -103 464 -356 353 -286
438 -359 429 -370 -6 -8 -16 -11 -23 -7 -50 30 -935 757 -930 765 3 5 13 0 21
-11 8 -12 25 -21 39 -21z m4778 10 c-11 -10 -223 -183 -473 -385 -393 -318
-455 -365 -468 -352 -12 12 45 61 426 370 319 258 447 357 466 357 14 0 30 9
37 19 7 11 16 17 21 14 5 -3 1 -13 -9 -23z m-5284 -435 c173 -142 319 -261
323 -265 5 -5 6 -17 2 -28 -5 -18 -49 14 -340 254 -184 152 -335 277 -335 279
0 18 14 34 24 27 6 -5 153 -125 326 -267z m6081 232 c-7 -7 -157 -132 -334
-278 -240 -198 -324 -262 -330 -252 -5 8 -7 18 -5 22 2 5 151 131 333 280 271
223 331 268 338 255 6 -10 5 -20 -2 -27z m-5556 -410 c28 -11 53 -23 57 -26 7
-6 38 -476 38 -574 l0 -50 -23 21 c-61 58 -190 84 -294 59 -38 -9 -63 -10 -63
-4 0 21 108 519 126 579 10 32 72 31 159 -5z m4843 18 c8 -8 132 -562 132
-592 0 -7 -22 -5 -62 4 -105 25 -234 -1 -295 -59 l-23 -21 0 54 c0 30 7 162
15 294 8 132 15 248 15 257 0 18 34 37 115 64 36 12 91 12 103 -1z m-3812
-128 c256 -193 599 -238 952 -126 104 34 251 99 320 142 l42 27 43 -27 c69
-43 215 -108 320 -142 265 -85 534 -80 758 14 57 24 182 101 249 154 l26 20
334 -416 c184 -229 341 -425 348 -435 12 -17 9 -24 -35 -71 -136 -145 -250
-384 -289 -611 -13 -72 -15 -136 -11 -301 8 -323 39 -475 192 -930 131 -390
160 -505 190 -748 34 -272 6 -465 -96 -670 -145 -292 -437 -543 -745 -640
-158 -50 -221 -57 -736 -87 -97 -5 -201 -15 -230 -21 -81 -17 -165 -67 -245
-145 l-72 -72 -74 72 c-81 79 -164 128 -245 145 -29 6 -133 16 -230 21 -515
30 -578 37 -736 87 -329 104 -648 392 -772 698 -95 231 -106 445 -43 785 30
160 61 269 164 575 162 481 189 620 190 970 0 199 -3 253 -18 315 -54 224
-155 425 -280 557 -44 46 -47 54 -35 71 7 10 164 206 348 435 209 260 338 413
345 408 5 -5 38 -29 71 -54z m-716 -221 c113 -82 215 -157 226 -166 21 -16 19
-18 -137 -214 -88 -109 -159 -202 -159 -206 0 -4 8 -14 17 -21 25 -21 131
-157 149 -190 12 -23 -13 -8 -118 72 -73 56 -141 109 -150 118 -15 14 -20 67
-38 380 -11 200 -20 370 -20 378 0 18 -10 25 230 -151z m4271 -205 c-12 -199
-21 -367 -21 -375 0 -8 -39 -45 -87 -82 -49 -37 -117 -90 -152 -118 -60 -47
-63 -48 -47 -19 18 35 124 171 149 192 9 7 17 17 17 21 0 4 -71 97 -159 206
-138 173 -157 200 -142 210 9 7 115 84 235 173 121 88 221 159 223 157 3 -2
-5 -166 -16 -365z m-4751 -688 l0 -78 -60 -1 -60 -2 0 79 0 79 60 0 60 0 0
-77z m103 46 c14 -8 17 -24 17 -85 0 -61 -3 -75 -14 -71 -8 3 -32 11 -55 18
l-41 12 0 78 0 77 38 -10 c20 -6 45 -14 55 -19z m4907 -47 l0 -79 -41 -12
c-23 -7 -48 -15 -55 -18 -12 -5 -14 8 -12 73 l3 79 50 17 c28 9 51 17 53 18 1
0 2 -35 2 -78z m130 -1 l0 -79 -60 2 -60 1 0 78 0 77 60 0 60 0 0 -79z m-5356
-128 c-9 -7 -14 -18 -11 -26 8 -21 109 -96 217 -162 88 -54 498 -262 687 -350
l82 -38 -6 -71 c-3 -39 -7 -73 -10 -75 -3 -4 -292 141 -318 159 -5 4 -118 62
-250 130 -279 143 -332 175 -391 237 -40 41 -44 51 -45 97 -2 46 -2 48 -8 16
-6 -33 -7 -34 -14 -10 -4 14 -7 59 -7 101 l0 77 43 41 42 41 3 -77 c2 -63 0
-80 -14 -90z m459 88 l47 -35 0 -81 c-1 -65 -3 -77 -13 -65 -7 9 -29 26 -50
39 -21 13 -43 28 -50 35 -6 7 -20 15 -29 19 -15 5 -18 19 -18 87 l0 81 33 -22
c17 -12 53 -38 80 -58z m4647 -1 l0 -80 -61 -37 c-34 -21 -70 -47 -80 -57 -19
-19 -19 -18 -19 60 l0 80 48 35 c62 46 106 78 110 79 1 0 2 -36 2 -80z m407
10 c14 -16 18 -148 6 -190 -7 -24 -8 -23 -14 10 -6 32 -6 30 -8 -16 -1 -46 -5
-56 -45 -97 -57 -60 -112 -94 -361 -222 -115 -59 -246 -127 -290 -150 -44 -23
-133 -70 -197 -104 l-118 -61 0 49 c0 27 -3 61 -6 77 -5 27 -2 31 58 58 182
85 626 311 708 360 109 67 209 142 217 163 4 9 -1 20 -10 25 -14 7 -17 25 -17
90 l0 82 32 -30 c18 -16 38 -36 45 -44z m-5962 -990 c22 -11 45 -20 52 -20 10
0 14 -28 15 -107 l2 -108 3 103 c2 56 7 102 12 102 23 0 98 -33 119 -53 33
-30 44 -62 44 -127 1 -39 2 -47 7 -26 5 26 7 27 20 13 7 -9 37 -30 66 -47 69
-39 124 -122 127 -189 1 -43 2 -44 5 -8 5 42 5 43 39 20 14 -9 49 -21 77 -28
61 -13 68 -29 43 -102 -9 -26 -16 -56 -15 -67 0 -24 26 60 36 117 3 20 11 37
17 37 6 0 41 -30 78 -67 l68 -67 2 -111 2 -110 3 106 4 106 56 -29 c31 -15 69
-28 84 -28 23 0 29 -5 30 -22 l2 -23 4 23 c4 19 11 22 54 22 67 0 124 -24 114
-47 -46 -119 -116 -437 -136 -618 -33 -310 37 -581 212 -812 28 -36 49 -66 47
-67 -6 -5 -114 -25 -165 -31 l-51 -7 -37 74 c-20 40 -33 62 -30 48 4 -14 18
-45 31 -69 13 -24 23 -45 21 -47 -4 -4 -159 -37 -181 -38 -15 -1 -26 24 -63
137 -25 75 -48 136 -50 134 -2 -3 17 -66 42 -141 25 -76 45 -139 45 -141 0 -2
-30 -8 -67 -14 -131 -20 -134 -20 -143 3 l-9 21 0 -21 c-1 -18 -9 -22 -58 -28
-31 -4 -67 -9 -79 -12 -16 -4 -24 1 -34 26 -7 17 -15 29 -17 26 -3 -2 1 -14 7
-26 6 -12 9 -24 6 -27 -4 -4 -140 -33 -158 -33 -10 0 -67 103 -89 162 -10 29
-17 40 -14 23 3 -16 23 -65 45 -109 23 -43 39 -80 38 -81 -8 -6 -102 -35 -104
-32 -2 2 -21 41 -43 88 -87 189 -135 380 -150 596 -6 76 -13 453 -16 838 -3
385 -8 753 -11 818 -4 64 -4 117 -2 117 2 0 21 -9 43 -20z m6391 -97 c-3 -65
-8 -433 -11 -818 -3 -385 -10 -763 -16 -840 -16 -219 -63 -405 -150 -594 -22
-47 -41 -86 -43 -88 -2 -3 -96 26 -104 32 -1 1 15 38 38 81 22 44 42 93 45
109 3 17 -4 6 -14 -23 -22 -59 -79 -162 -89 -162 -18 0 -154 29 -158 33 -3 3
0 15 6 27 6 12 10 24 7 26 -2 3 -10 -9 -17 -26 -10 -25 -18 -30 -34 -26 -12 3
-48 8 -79 12 -49 6 -57 10 -58 28 l0 21 -9 -21 c-9 -23 -12 -23 -142 -3 -38 6
-68 12 -68 14 0 2 20 65 45 141 25 75 44 138 42 141 -2 2 -25 -59 -50 -134
-37 -113 -48 -138 -63 -137 -22 1 -177 34 -181 38 -2 2 8 23 21 47 13 24 27
55 31 69 3 14 -10 -8 -30 -48 l-36 -73 -57 6 c-52 6 -117 19 -149 30 -8 3 5
28 36 69 175 230 245 501 212 811 -20 181 -90 499 -136 618 -10 23 48 47 115
47 48 0 50 -1 51 -27 l2 -28 4 28 c4 22 9 27 32 27 16 0 54 13 85 28 l56 29 2
-106 2 -106 3 110 4 110 67 68 c36 37 72 67 78 67 6 0 14 -17 17 -37 10 -57
36 -141 36 -117 1 11 -6 41 -15 67 -25 73 -18 89 43 102 28 7 63 19 77 28 34
23 34 22 39 -20 3 -36 4 -35 5 8 3 67 58 150 127 189 29 17 59 38 66 47 13 14
15 13 20 -13 5 -21 6 -13 7 26 0 65 11 97 44 127 21 20 96 53 119 53 5 0 10
-46 12 -102 l3 -103 2 106 2 106 40 12 c21 6 42 16 45 21 3 6 11 10 17 10 7 0
8 -38 4 -117z"/>
<path d="M3873 5807 l-321 -402 43 -51 c99 -115 176 -255 230 -417 57 -170 68
-261 62 -502 -6 -259 -29 -402 -113 -702 l-6 -23 901 0 901 0 0 1238 0 1239
-103 -51 c-313 -158 -643 -196 -922 -109 -95 30 -212 89 -286 144 -29 21 -55
39 -58 38 -3 0 -151 -181 -328 -402z m1418 -74 c30 -16 59 -38 65 -51 7 -13
26 -38 43 -56 32 -33 39 -48 20 -43 -21 4 -20 -20 1 -26 30 -8 25 -30 -5 -25
-22 5 -23 3 -13 -10 11 -13 9 -14 -14 -9 -15 4 -45 4 -67 1 -35 -6 -42 -11
-56 -46 -8 -22 -22 -97 -30 -168 -17 -153 -42 -245 -100 -360 -61 -121 -78
-172 -73 -220 3 -36 2 -39 -9 -24 -16 22 -17 92 -2 131 8 21 7 25 -1 17 -6 -6
-14 -31 -16 -55 -3 -24 -8 -60 -11 -79 l-6 -35 -13 40 -12 40 -1 -40 c-1 -22
-2 -51 -2 -64 -1 -40 -18 -2 -20 44 -1 35 -2 33 -10 -19 -11 -77 -19 -83 -19
-15 0 30 -4 49 -8 42 -4 -6 -39 -26 -77 -43 -38 -17 -73 -36 -76 -42 -4 -6
-17 -76 -29 -157 -12 -80 -33 -183 -47 -228 -22 -74 -53 -233 -53 -275 0 -10
10 -27 23 -38 l22 -21 -35 3 c-33 3 -35 5 -43 53 -7 39 -5 56 8 77 17 29 35
167 33 253 -1 28 7 114 17 193 14 115 16 148 6 169 -9 21 -14 24 -21 13 -10
-16 -106 -17 -167 -1 -60 16 -131 68 -183 133 -25 31 -47 55 -49 52 -2 -2 15
-28 38 -57 27 -35 41 -64 41 -83 0 -26 -28 -200 -61 -384 -10 -56 -9 -79 9
-170 27 -139 48 -196 75 -205 l22 -8 -23 -4 c-31 -6 -74 48 -88 111 -37 169
-46 203 -58 227 -10 20 -11 51 -4 135 4 60 6 115 3 123 -3 7 4 43 15 80 25 79
33 252 14 279 -10 14 -12 -5 -8 -98 l5 -115 -44 -125 c-25 -69 -61 -170 -81
-224 l-35 -99 24 -97 c28 -112 58 -182 87 -210 17 -16 18 -20 6 -20 -19 0 -88
62 -88 79 0 14 -53 192 -76 252 -14 40 -14 39 32 179 23 71 28 103 29 190 0
111 -10 156 -53 249 -25 53 -25 55 -9 100 9 25 14 47 12 50 -9 8 -16 -7 -30
-56 l-13 -48 -16 37 c-23 54 -21 68 25 134 91 130 146 168 249 167 129 0 406
-31 505 -56 214 -54 237 -49 290 55 39 78 41 89 55 248 16 183 18 193 46 186
31 -8 38 8 20 46 -13 25 -14 33 -4 40 24 15 64 8 119 -19z m-445 -1290 c-9
-260 5 -424 40 -470 14 -18 32 -33 40 -33 7 0 14 -4 14 -10 0 -5 -13 -10 -30
-10 -24 0 -35 8 -55 40 -15 24 -25 55 -25 77 0 43 -31 190 -54 258 -23 67 -20
169 10 303 4 20 31 39 58 41 5 1 6 -83 2 -196z"/>
<path d="M6921 6171 c-320 -239 -776 -252 -1208 -35 l-103 51 0 -1239 0 -1238
901 0 901 0 -6 23 c-81 281 -107 445 -113 702 -4 168 -2 229 11 305 36 208
135 433 256 584 l67 83 -321 401 c-177 220 -324 401 -327 401 -3 1 -29 -17
-58 -38z m388 -383 c165 -207 301 -380 301 -383 0 -4 -20 -30 -43 -58 -130
-155 -220 -350 -268 -581 -19 -90 -20 -125 -16 -321 5 -242 29 -416 85 -612
16 -57 27 -105 24 -108 -3 -3 -403 -5 -889 -5 l-883 0 0 1224 0 1225 113 -54
c117 -56 218 -90 352 -121 121 -29 369 -26 490 4 103 26 265 101 345 160 51
38 56 39 71 24 9 -9 152 -187 318 -394z"/>
<path d="M6330 5819 c0 -59 22 -113 57 -137 64 -44 83 -65 83 -88 0 -33 -20
-30 -56 7 -54 57 -112 73 -183 48 -39 -14 -36 -25 18 -67 55 -42 81 -47 147
-32 30 7 57 11 60 8 2 -3 0 -43 -6 -89 -5 -46 -10 -112 -10 -147 0 -58 -20
-132 -36 -132 -4 0 -3 24 1 53 5 28 8 64 7 79 -1 35 -33 97 -65 126 l-25 24
-12 -57 c-16 -77 -7 -114 41 -169 23 -26 40 -48 38 -50 -2 -2 -51 28 -109 66
-58 38 -111 72 -117 76 -15 9 -17 35 -7 119 6 55 4 66 -19 105 -14 24 -34 51
-45 61 -20 19 -21 18 -31 -20 -22 -77 -7 -147 39 -188 12 -11 26 -28 32 -39 9
-17 8 -17 -9 -5 -98 72 -113 93 -113 159 0 57 -23 96 -78 131 -25 16 -50 29
-54 29 -11 0 -10 -48 3 -95 13 -48 38 -77 96 -111 72 -42 51 -58 -37 -27 -44
16 -50 16 -92 0 -25 -10 -57 -30 -72 -46 l-28 -29 52 -17 c66 -22 110 -14 168
31 25 19 50 34 56 34 14 0 100 -99 93 -107 -4 -3 -25 -5 -49 -5 -63 1 -121
-30 -157 -86 -36 -55 -28 -63 50 -51 63 10 92 30 120 84 13 25 30 47 37 50 7
3 36 -14 64 -38 l50 -42 -60 -5 c-53 -4 -66 -10 -97 -40 -32 -31 -65 -79 -65
-95 0 -11 82 -4 120 11 30 12 50 31 76 71 19 30 39 51 45 48 81 -51 108 -73
94 -78 -8 -4 -21 -4 -29 -1 -43 17 -133 -40 -166 -105 -16 -31 -1 -41 54 -34
56 6 101 36 128 86 31 56 54 59 74 11 14 -33 15 -69 9 -256 -5 -152 -11 -223
-20 -235 -22 -29 -29 -7 -17 49 16 70 2 118 -48 171 l-38 41 -12 -59 c-15 -73
-4 -115 46 -173 19 -23 33 -42 30 -42 -4 0 -32 14 -62 32 l-56 31 7 51 c16
104 1 160 -55 211 -26 24 -35 13 -44 -56 -8 -58 10 -109 56 -156 18 -18 30
-35 27 -37 -2 -2 -29 10 -59 28 -53 31 -55 34 -53 72 7 127 7 130 -20 176 -51
88 -70 87 -82 -7 -7 -62 4 -96 51 -148 20 -21 33 -41 30 -44 -2 -3 -32 10 -65
28 -67 37 -70 44 -50 123 7 30 8 54 0 82 -10 38 -64 114 -81 114 -5 0 -13 -23
-19 -51 -15 -67 -1 -118 45 -168 38 -43 41 -51 19 -51 -8 0 -29 20 -47 44 -18
24 -48 51 -66 60 -33 16 -97 21 -126 10 -14 -5 -14 -9 2 -36 9 -16 33 -41 52
-56 30 -23 45 -27 105 -27 66 -1 115 -15 115 -35 0 -10 -16 -15 -75 -25 -55
-9 -91 -38 -120 -96 -14 -26 -25 -51 -25 -54 0 -14 71 -3 110 18 36 18 51 34
75 81 17 33 35 61 40 62 6 2 30 -14 54 -36 37 -32 42 -41 32 -53 -6 -8 -27
-18 -47 -21 -50 -10 -100 -58 -119 -117 -10 -28 -14 -53 -11 -56 10 -11 84 17
115 43 19 16 36 44 45 74 28 95 28 94 96 52 33 -20 58 -41 57 -47 -2 -5 -30
-19 -63 -30 -44 -15 -64 -29 -81 -54 -23 -34 -48 -109 -40 -118 3 -2 24 1 48
8 59 18 102 64 120 130 8 31 20 55 29 57 24 4 111 -59 147 -106 l33 -44 0
-238 c0 -240 -4 -276 -45 -372 -7 -17 3 -18 120 -18 117 0 127 1 120 18 -44
106 -45 115 -45 362 0 188 3 247 14 268 17 33 67 79 123 115 48 30 55 26 73
-43 21 -78 60 -115 144 -136 28 -7 28 -6 21 27 -10 48 -49 113 -77 127 -13 6
-41 17 -62 24 -22 7 -41 18 -43 23 -2 6 20 25 49 43 29 17 78 52 108 77 30 25
59 44 65 42 5 -2 24 -30 40 -63 25 -48 38 -63 77 -82 27 -14 59 -22 78 -20
l31 3 -27 52 c-31 63 -67 91 -127 99 -64 9 -77 19 -54 41 13 14 34 17 95 18
85 0 105 10 155 74 32 41 24 51 -41 51 -60 0 -104 -23 -141 -76 -18 -24 -39
-44 -47 -44 -21 0 -17 14 12 41 51 47 65 100 50 187 -4 23 -12 42 -16 42 -15
0 -69 -73 -81 -108 -9 -26 -8 -49 1 -93 7 -32 10 -64 7 -72 -7 -18 -116 -82
-124 -73 -4 3 7 21 24 39 42 44 55 72 55 121 1 50 -11 106 -22 106 -15 0 -71
-78 -81 -112 -7 -23 -6 -53 3 -96 10 -53 10 -65 -3 -76 -21 -19 -109 -68 -109
-60 0 4 16 24 34 45 46 50 60 101 45 168 -6 28 -14 51 -19 51 -17 0 -71 -76
-81 -114 -8 -28 -7 -52 0 -82 18 -73 16 -79 -45 -114 -31 -17 -58 -29 -61 -27
-2 3 12 23 32 45 47 52 58 92 45 161 -5 30 -10 57 -10 60 0 17 -66 -62 -82
-98 -18 -40 -19 -49 -8 -103 13 -61 7 -85 -14 -56 -13 18 -26 213 -26 386 0
91 19 146 47 140 9 -2 28 -23 43 -48 30 -52 68 -77 126 -83 55 -7 70 3 54 34
-33 65 -123 122 -166 105 -8 -3 -21 -3 -29 1 -16 6 -9 12 77 67 l27 18 32 -51
c37 -61 88 -91 154 -91 25 0 45 4 45 8 0 12 -53 83 -79 106 -13 12 -43 21 -82
25 l-61 6 51 43 c59 50 64 49 105 -23 29 -48 71 -73 134 -76 52 -3 57 2 39 38
-35 66 -96 103 -173 103 -24 0 -44 3 -44 6 0 12 84 104 95 104 6 0 32 -16 57
-35 57 -45 100 -52 168 -30 l52 17 -28 29 c-15 16 -47 36 -72 46 -42 16 -48
16 -92 0 -26 -9 -55 -17 -64 -17 -26 0 -18 20 15 38 82 44 119 102 119 186 0
33 -6 33 -62 -3 -54 -34 -78 -74 -78 -128 -1 -21 -6 -51 -13 -66 -11 -26 -107
-111 -115 -102 -3 2 14 25 37 51 48 55 58 96 41 171 l-12 55 -25 -24 c-32 -30
-64 -91 -65 -126 0 -15 3 -54 6 -87 l8 -60 -107 -68 c-132 -85 -150 -92 -104
-40 51 56 63 98 50 169 -6 32 -13 59 -15 61 -2 2 -20 -15 -40 -38 -47 -55 -60
-104 -45 -163 6 -24 9 -52 7 -62 -9 -45 -32 36 -39 136 -4 58 -10 131 -14 164
l-8 59 34 -7 c103 -19 112 -19 161 13 26 16 51 39 57 49 9 18 7 22 -21 31 -70
25 -128 9 -182 -48 -35 -37 -56 -40 -56 -8 1 28 16 47 61 75 21 12 45 34 54
49 19 28 34 153 19 153 -20 0 -83 -51 -103 -83 -14 -24 -21 -51 -21 -88 0 -59
-13 -93 -24 -64 -3 9 -6 37 -6 61 0 58 -29 114 -77 147 -22 15 -42 27 -46 27
-4 0 -7 -23 -7 -51z"/>
<path d="M6186 5519 c-10 -49 -7 -118 5 -142 7 -12 26 -38 44 -58 l33 -37 12
60 c10 44 10 68 2 96 -11 37 -66 112 -81 112 -5 0 -11 -14 -15 -31z"/>
<path d="M6723 5528 c-61 -66 -74 -118 -51 -201 l11 -44 38 43 c42 49 55 93
45 162 -8 59 -17 68 -43 40z"/>
<path d="M6886 4634 c28 -81 52 -108 122 -134 59 -23 62 -20 37 51 -21 57 -59
97 -110 111 -22 6 -47 18 -56 25 -14 11 -12 1 7 -53z"/>
<path d="M6278 4512 c-72 -26 -108 -70 -124 -152 -7 -30 -6 -31 22 -24 80 19
121 62 152 162 12 36 13 36 -50 14z"/>
<path d="M6629 4477 c9 -29 23 -62 31 -74 18 -25 74 -58 113 -67 31 -7 34 2
16 55 -21 60 -55 96 -114 118 -31 12 -57 21 -59 21 -2 0 3 -24 13 -53z"/>
<path d="M3750 3667 c0 -2 -32 -97 -70 -213 -87 -258 -112 -344 -144 -504 -55
-278 -58 -483 -11 -659 83 -309 329 -590 649 -746 182 -89 333 -118 701 -135
451 -21 510 -37 653 -173 l62 -60 63 60 c142 136 201 152 652 173 368 17 519
46 701 135 398 193 659 557 681 950 13 244 -37 508 -178 933 l-81 242 -1839 0
c-1011 0 -1839 -1 -1839 -3z m1738 -151 c104 -53 174 -172 174 -296 0 -88 -19
-164 -112 -445 -43 -132 -84 -270 -91 -307 -9 -48 -16 -65 -26 -61 -22 8 -18
76 22 457 23 220 22 319 -4 386 -28 74 -103 165 -179 219 -35 24 -61 46 -58
49 3 3 27 11 53 18 67 19 161 11 221 -20z m-283 -27 c79 -29 175 -121 217
-207 45 -90 47 -169 14 -489 -14 -139 -26 -277 -26 -308 l0 -54 -34 20 c-40
23 -35 3 -71 312 -42 354 -78 461 -189 564 -56 52 -162 113 -196 113 -21 0 24
30 79 51 62 24 138 24 206 -2z m605 -43 c62 -41 84 -96 78 -200 -6 -96 -29
-170 -104 -325 -42 -88 -283 -537 -301 -560 -2 -3 -9 1 -15 7 -20 20 6 135 86
381 98 297 119 380 119 471 1 81 -26 158 -80 228 l-26 34 100 -4 c89 -3 105
-7 143 -32z m-812 -52 c89 -43 168 -119 206 -196 35 -72 69 -241 96 -483 12
-104 24 -200 27 -212 6 -27 6 -27 -43 -6 -22 9 -56 19 -78 22 l-38 6 -63 180
c-34 99 -74 209 -89 244 -82 193 -226 328 -368 347 -26 4 -48 10 -48 14 0 12
75 77 109 95 86 44 182 41 289 -11z m953 0 c143 -72 132 -330 -28 -649 -126
-250 -326 -454 -410 -416 l-23 11 31 62 c17 35 81 153 142 262 131 237 176
333 213 450 23 77 26 98 21 179 -2 51 -8 100 -12 111 -7 16 -5 17 16 11 13 -4
36 -14 50 -21z m193 -154 c22 -24 42 -62 52 -97 66 -226 -160 -658 -403 -770
-47 -22 -153 -43 -153 -31 0 3 31 36 68 74 124 127 254 349 318 544 24 74 28
101 28 211 l1 126 27 -9 c15 -5 43 -27 62 -48z m879 54 c12 -4 11 -13 -10 -49
-14 -26 -24 -61 -25 -85 0 -47 -19 -53 -62 -19 -46 36 -29 126 28 149 25 11
49 12 69 4z m-2290 -37 c160 -74 238 -194 359 -549 l64 -188 -60 0 c-99 0
-101 2 -137 96 -75 199 -193 343 -338 413 -85 41 -202 68 -247 57 l-25 -7 21
41 c40 78 105 137 180 161 41 14 126 2 183 -24z m1563 -242 c20 -42 24 -66 24
-145 0 -181 -56 -326 -171 -442 -90 -92 -155 -122 -264 -123 -44 0 -98 6 -119
14 l-39 14 45 17 c65 25 126 69 197 146 141 150 235 352 248 532 l6 83 25 -23
c13 -13 35 -45 48 -73z m-1765 39 c156 -45 279 -156 365 -327 43 -84 78 -177
70 -184 -11 -11 -121 38 -188 83 -44 30 -83 67 -112 108 -104 145 -260 252
-387 263 -68 7 -67 17 4 52 52 26 168 28 248 5z m1836 -31 c59 -39 93 -145 93
-289 0 -158 -41 -274 -132 -370 -67 -71 -130 -98 -217 -92 -36 3 -79 10 -96
17 l-30 13 60 30 c168 86 287 307 286 532 0 83 -5 118 -26 170 -7 16 -5 17 16
11 13 -4 34 -14 46 -22z m-1949 -84 c90 -44 194 -137 246 -220 80 -126 309
-224 511 -217 61 2 79 -2 135 -29 118 -57 185 -132 211 -236 10 -40 9 -54 -5
-91 -9 -24 -26 -52 -36 -61 -20 -18 -20 -17 -20 33 0 28 -5 62 -11 75 -23 50
-108 77 -314 102 -71 8 -159 22 -195 31 -131 33 -299 127 -435 244 -234 200
-496 212 -523 23 -4 -26 -12 -48 -18 -50 -12 -4 -44 108 -44 155 0 84 66 180
165 238 113 66 203 67 333 3z m2127 -45 c90 -89 115 -202 80 -352 -41 -173
-140 -272 -272 -272 -32 0 -68 3 -80 6 -22 6 -21 8 15 34 73 52 138 157 168
267 27 103 17 288 -21 375 -14 34 55 -2 110 -58z m581 -11 c58 -29 87 -77 82
-133 -3 -25 -13 -63 -24 -85 l-19 -40 -6 55 c-3 31 -11 65 -17 76 -20 38 -90
92 -141 111 -28 10 -51 21 -51 25 0 24 123 18 176 -9z m-439 -45 c81 -55 125
-145 125 -252 -1 -162 -114 -286 -260 -286 -16 0 -32 3 -35 6 -3 4 11 27 33
51 67 76 105 207 98 333 -4 61 -11 88 -36 134 l-31 57 32 -7 c18 -3 51 -20 74
-36z m328 10 c69 -35 103 -66 120 -113 33 -85 0 -181 -76 -220 l-30 -16 8 28
c14 51 7 136 -17 185 -24 51 -94 122 -138 140 l-27 11 25 7 c34 11 86 2 135
-22z m-240 -7 c58 -26 122 -103 141 -169 44 -150 -25 -296 -151 -318 l-40 -7
22 24 c12 13 34 51 49 84 54 118 31 265 -56 350 -56 55 -41 71 35 36z m148
-27 c72 -47 126 -169 111 -253 -13 -77 -71 -144 -142 -166 l-22 -6 25 37 c35
51 48 108 43 185 -6 77 -44 157 -95 197 -17 15 -29 30 -26 35 8 13 64 -2 106
-29z m-2689 -109 c73 -19 174 -72 241 -125 261 -209 379 -264 635 -295 216
-26 307 -52 330 -94 12 -23 13 -101 2 -119 -7 -9 -16 -10 -40 -1 -33 11 -103
9 -134 -5 -12 -6 -18 0 -23 24 -4 17 -26 51 -48 75 -52 53 -111 73 -170 55
-21 -6 -40 -10 -41 -8 -48 79 -129 128 -212 128 -29 0 -64 -4 -78 -10 -35 -13
-76 6 -76 35 0 11 -13 42 -29 66 -49 78 -132 114 -206 89 -32 -11 -39 -10 -58
8 -12 11 -32 25 -44 31 -30 15 -102 14 -134 -3 -16 -8 -32 -10 -40 -5 -8 5
-38 9 -66 9 -50 0 -53 1 -53 25 0 30 22 76 44 94 21 18 85 40 116 41 14 0 52
-7 84 -15z m68 -174 l33 -29 -27 -21 c-43 -34 -71 -87 -66 -126 4 -32 2 -34
-38 -45 -39 -11 -46 -10 -74 10 -64 46 -80 133 -34 184 59 63 152 75 206 27z
m-210 13 c4 -3 -5 -22 -18 -41 -13 -20 -24 -47 -24 -60 0 -35 23 -85 53 -113
15 -14 27 -28 27 -32 0 -3 -20 -14 -44 -23 -59 -23 -112 -8 -159 44 -41 46
-51 72 -43 115 7 35 56 89 96 105 28 11 103 14 112 5z m403 -43 c126 -57 151
-199 48 -277 -78 -60 -161 -53 -232 17 -44 45 -67 102 -57 143 11 44 74 105
125 120 60 19 69 19 116 -3z m138 -218 c-40 -52 -38 -118 5 -178 l32 -46 -26
-9 c-42 -16 -92 -12 -114 10 -11 11 -20 24 -20 30 0 5 -13 25 -30 43 l-30 34
43 17 c53 20 102 66 118 111 9 24 17 31 30 28 17 -5 16 -8 -8 -40z m227 26
c56 -25 86 -53 111 -101 24 -47 24 -85 -1 -125 -26 -43 -71 -64 -134 -64 -120
0 -216 81 -218 183 -1 104 126 160 242 107z m-596 -28 c23 -43 82 -90 132
-103 35 -10 44 -16 44 -35 0 -34 -40 -73 -85 -83 -159 -36 -292 164 -155 232
46 23 47 23 64 -11z m-104 2 c0 -5 -7 -17 -15 -27 -22 -29 -18 -76 10 -132 36
-71 34 -78 -21 -71 -80 9 -154 89 -154 168 l0 37 43 -5 c29 -3 53 2 77 15 38
21 60 26 60 15z m997 -99 c27 -16 48 -38 62 -67 22 -44 27 -77 13 -77 -4 0
-16 -13 -25 -30 -16 -27 -23 -30 -66 -30 -32 0 -65 9 -102 28 -52 26 -54 28
-49 62 2 19 5 57 5 83 0 44 2 48 30 57 40 11 81 3 132 -26z m1420 -44 c43 -26
68 -66 68 -110 0 -65 -65 -130 -130 -130 -28 0 -30 3 -32 41 -3 51 -34 102
-78 129 -28 17 -33 25 -25 39 25 49 139 67 197 31z m-2081 -41 c32 -62 6 -144
-57 -186 -33 -22 -47 -25 -93 -21 -93 8 -156 65 -156 142 0 43 7 48 40 31 82
-43 187 -19 211 49 14 39 28 36 55 -15z m1252 -9 c25 -16 32 -25 27 -38 -26
-63 -27 -91 -5 -138 25 -50 26 -48 -34 -80 -39 -21 -127 -14 -163 12 -95 71
-93 186 3 241 51 30 126 31 172 3z m244 -6 c43 -22 63 -59 49 -90 -6 -14 -11
-42 -11 -64 0 -127 -238 -110 -263 20 -4 18 0 46 9 70 32 80 130 109 216 64z
m406 -24 c74 -45 97 -147 44 -200 -32 -31 -94 -52 -129 -44 l-23 6 21 30 c44
61 34 132 -26 188 -24 22 -24 25 -8 31 34 14 88 9 121 -11z m-946 -25 c30 -20
38 -31 38 -56 0 -18 5 -49 12 -70 10 -34 9 -42 -8 -60 -48 -54 -130 -64 -204
-26 -84 42 -112 121 -67 188 42 63 152 75 229 24z m808 7 c76 -41 89 -136 27
-197 -60 -59 -159 -55 -216 10 -75 85 -11 205 109 205 25 0 61 -8 80 -18z
m-2085 -59 c-6 -43 19 -122 44 -137 16 -10 13 10 -3 24 -18 14 -41 79 -32 87
3 4 19 -5 34 -19 42 -39 86 -58 139 -58 37 -1 55 -7 76 -25 33 -29 30 -39 -19
-55 -44 -15 -106 -8 -142 16 -15 10 -44 18 -64 19 -89 2 -167 121 -128 194 8
16 15 17 56 8 l46 -11 -7 -43z m556 45 c60 -31 151 -31 202 0 22 14 37 19 37
12 0 -24 -67 -78 -110 -90 -73 -20 -169 10 -195 60 -24 46 0 52 66 18z m-59
-41 l38 -40 -19 -43 c-42 -93 -184 -114 -253 -37 -17 19 -17 20 13 42 36 27
69 78 69 108 0 20 3 21 57 16 50 -5 62 -11 95 -46z m381 -2 c20 -8 59 -15 87
-15 l50 0 0 -36 c0 -49 -30 -87 -92 -118 -57 -29 -123 -34 -153 -12 -16 12
-17 17 -6 44 7 17 11 53 9 79 -3 36 0 55 15 76 17 26 21 27 36 13 9 -8 33 -22
54 -31z m-115 -87 c-11 -113 -133 -152 -232 -73 l-28 22 23 51 c21 46 25 49
47 41 33 -13 100 -10 142 5 19 7 39 10 44 8 4 -3 6 -27 4 -54z m285 -42 c9
-13 34 -33 57 -44 l42 -20 -32 -17 c-17 -9 -52 -19 -78 -22 -49 -5 -132 11
-132 27 0 4 15 17 33 29 18 11 43 31 56 45 30 32 35 32 54 2z m887 -46 c26
-11 30 -18 30 -50 0 -93 -128 -153 -205 -97 -17 13 -17 15 0 41 11 16 19 48
19 77 1 44 4 51 31 65 17 8 34 20 40 25 6 6 17 -1 32 -20 12 -15 36 -34 53
-41z m-475 2 c54 -6 57 -21 11 -46 -18 -10 -39 -29 -46 -42 -25 -45 -130 -21
-161 38 -10 19 -9 24 7 33 10 5 32 24 49 41 l30 31 33 -25 c18 -14 51 -27 77
-30z m271 18 c26 0 33 -4 37 -26 6 -35 -10 -91 -34 -115 -25 -25 -88 -25 -139
1 -42 22 -65 49 -75 91 -6 23 -2 27 33 37 21 7 46 20 56 31 16 18 18 18 54 0
20 -11 51 -19 68 -19z m540 -49 c-44 -85 -167 -105 -242 -39 -19 17 -34 34
-34 38 0 11 76 24 150 25 50 0 74 6 100 22 34 22 35 22 38 3 2 -10 -4 -32 -12
-49z m-1431 1 c30 1 55 -1 55 -5 0 -19 -32 -67 -64 -95 -63 -55 -160 -56 -208
-2 -16 17 -29 39 -29 50 -1 11 -2 26 -3 32 -1 9 12 12 39 10 24 -2 54 5 75 16
30 15 38 16 57 4 14 -9 42 -13 78 -10z m391 -1 c6 -1 17 -12 24 -26 17 -32 64
-61 110 -70 32 -6 35 -9 34 -38 -1 -38 -35 -56 -109 -57 -55 0 -106 24 -125
61 -12 21 -10 75 4 114 4 11 -1 4 -10 -15 -9 -19 -20 -42 -24 -50 -4 -8 -31
-28 -61 -43 -44 -23 -63 -28 -102 -24 -74 7 -114 60 -79 105 16 20 21 21 51
11 44 -16 143 -6 183 18 29 17 48 20 104 14z m299 -44 c11 -17 36 -42 55 -55
29 -19 45 -23 95 -20 59 3 60 3 63 -25 6 -52 -85 -117 -163 -117 -68 0 -157
55 -169 106 -10 37 10 89 45 119 39 32 50 31 74 -8z"/>
<path d="M10195 8060 c-4 -6 0 -19 9 -29 23 -25 20 -64 -6 -88 -69 -64 -424
-323 -443 -323 -12 0 -32 11 -45 25 -23 24 -46 25 -37 1 8 -21 168 -226 176
-226 18 0 18 14 0 44 -11 19 -17 41 -13 50 4 10 50 51 103 91 l95 74 22 -20
c13 -12 21 -26 19 -33 -31 -95 -105 -349 -105 -361 0 -8 23 -46 52 -83 29 -37
53 -69 55 -71 2 -3 8 0 13 5 7 7 5 22 -5 47 -23 55 -19 92 26 243 23 77 42
140 43 141 1 1 24 -9 51 -23 119 -61 242 2 253 129 3 40 -1 66 -15 98 -19 43
-216 311 -233 317 -4 2 -11 -2 -15 -8z m143 -239 c25 -34 32 -52 32 -88 0 -39
-5 -51 -38 -84 -67 -66 -135 -65 -207 5 -25 23 -45 47 -45 52 0 13 203 164
215 161 6 -2 25 -23 43 -46z"/>
<path d="M667 7676 c-81 -113 -150 -211 -153 -219 -10 -28 13 -26 41 3 16 17
34 30 41 30 12 0 411 -285 452 -323 25 -24 28 -53 7 -81 -19 -25 -19 -36 -1
-36 12 0 316 408 316 424 0 3 -23 40 -52 81 -64 91 -82 87 -48 -12 21 -63 22
-70 7 -103 -20 -46 -115 -180 -132 -187 -13 -5 -79 38 -192 123 l-42 31 56 77
c61 82 85 96 134 76 21 -9 33 -10 40 -3 10 10 -67 74 -164 138 -31 20 -48 13
-29 -13 31 -43 36 -63 25 -93 -18 -47 -97 -149 -111 -144 -8 3 -55 35 -106 72
l-93 68 55 75 c88 121 101 132 142 126 73 -11 83 -11 86 -1 2 6 -17 23 -44 39
-26 17 -56 36 -67 43 -19 12 -30 -1 -168 -191z"/>
<path d="M10700 7370 c0 -5 5 -21 12 -35 20 -45 0 -65 -153 -149 -223 -123
-274 -158 -300 -214 -66 -134 32 -346 179 -388 82 -24 129 -10 332 102 96 52
187 98 202 101 22 4 33 -1 56 -27 52 -57 46 -14 -14 95 -31 58 -61 105 -65
105 -15 0 -21 -22 -10 -33 17 -17 13 -62 -8 -81 -31 -28 -364 -206 -398 -212
-53 -10 -101 5 -144 43 -52 47 -79 101 -79 158 0 73 45 113 265 234 198 111
217 116 249 66 17 -26 36 -33 36 -14 0 23 -135 259 -147 259 -7 0 -13 -4 -13
-10z"/>
<path d="M369 7100 c-42 -12 -74 -37 -106 -83 -34 -47 -173 -303 -173 -318 0
-18 22 -8 47 22 21 25 31 29 52 24 26 -7 309 -154 434 -227 65 -38 69 -42 64
-72 -2 -17 -7 -39 -12 -48 -5 -13 -3 -18 8 -18 15 0 147 233 147 259 0 22 -25
10 -43 -20 -15 -28 -22 -31 -50 -26 -17 3 -76 29 -129 57 l-98 51 15 30 c9 16
21 29 28 29 6 0 91 11 187 25 96 14 178 25 182 25 4 0 26 37 49 81 27 55 37
85 30 92 -7 7 -18 0 -35 -20 -35 -42 -82 -58 -216 -77 -63 -9 -128 -18 -143
-21 -28 -5 -28 -4 -22 38 20 131 -94 235 -216 197z m84 -129 c39 -22 71 -92
62 -137 -8 -44 -36 -104 -48 -104 -5 0 -60 27 -123 61 l-114 60 16 37 c41 98
123 131 207 83z"/>
</g>
</svg>
